<svg width="300" height="168" viewBox="0 0 261 168" fill="none" xmlns="http://www.w3.org/2000/svg">
<path d="M242.585 0H120.977C116.882 0 113.562 4.08211 113.562 9.11765V83.8823C113.562 88.9179 116.882 93 120.977 93H242.585C246.68 93 250 88.9179 250 83.8823V9.11765C250 4.08211 246.68 0 242.585 0Z" fill="#9D4EDD"/>
<path d="M22.8026 59.8561H33.7804V69.2943H17.6758L10 59.8561V31.4703L17.6758 22.0321H22.8026V59.8561ZM29.5805 43.0811H47.1624V69.2943H35.808V52.448H29.5805V43.0811ZM24.8302 31.4703V22.0321H40.4424L47.1624 31.4703V36.2073H34.3598V31.4703H24.8302Z" fill="white"/>
<path d="M84.3827 53.4809H88.7275V62.7054H84.3827V69.2943H72.0725V22.0321H84.3827V53.4809ZM50.3776 53.9439L70.0449 25.2375V43.936L63.0643 53.4809H70.0449V62.7054H53.4189L50.3776 53.9439Z" fill="#9D4EDD"/>
<path d="M128.392 67.2429V27.3532H137.661V44.4488H151.565V27.3532H160.833V67.2429H151.565V50.1473H137.661V67.2429H128.392ZM170.102 67.2429V61.5444H165.468V38.7503H174.737V61.5444H188.64V38.7503H197.909V67.2429H170.102ZM207.178 67.2429V61.5444H202.543V27.3532H211.812V38.7503H230.35V44.4488H234.984V61.5444H230.35V67.2429H207.178ZM211.812 61.5444H225.716V44.4488H211.812V61.5444Z" fill="black"/>
<path d="M34.2842 151H22.8096L3.18066 118.603H14.582L34.2842 151ZM3.18066 151V121.679L12.5801 137.084V151H3.18066ZM34.2842 118.603V147.924L24.8848 132.445V118.603H34.2842ZM50.0557 144.408H54.1084V151H45.8076L39.2402 144.53V125.072L45.8076 118.603H54.1084V125.17H50.0557V144.408ZM59.9434 125.17H55.8174V118.603H64.1914L70.7344 125.072V144.53L64.1914 151H55.8174V144.408H59.9434V125.17ZM88.1904 144.091H91.4375V125.487H88.1904V118.603H105.476V125.487H102.229V144.091H105.476V151H88.1904V144.091ZM110.725 118.603H122.199L130.891 133.007L137.727 121.288V137.597L129.938 151L110.725 118.603ZM139.313 151V118.603H150.104V151H139.313ZM110.7 151V121.605L120.783 138.524V151H110.7ZM177.082 147.46H166.486L168.732 141.039H174.592L165.925 118.603H176.447L189.362 151H178.449L177.082 147.46ZM163.605 151H153.181L164.753 120.067L169.538 132.934L163.605 151ZM203.181 144.53H212.434V151H198.859L192.39 144.53V125.072L198.859 118.603H203.181V144.53ZM208.894 133.031H223.713V151H214.143V139.452H208.894V133.031ZM204.89 125.072V118.603H218.049L223.713 125.072V128.319H212.922V125.072H204.89ZM239.753 137.694V151H228.962V118.603H239.753V131.444H250.08V137.694H239.753ZM241.462 124.877V118.603H258.332V127.978H248.176V124.877H241.462ZM241.462 151V144.53H247.541V141.283H258.332V151H241.462Z" fill="white"/>
</svg>
