<svg width="28" height="28" viewBox="0 0 28 28" fill="none" xmlns="http://www.w3.org/2000/svg">
<rect width="28" height="28" rx="5" fill="#F1F1F1"/>
<path d="M22.5886 20.5988L18.3804 16.3906C19.3374 14.9699 19.8095 13.1949 19.5568 11.3035C19.1258 8.08635 16.489 5.46827 13.2687 5.06056C8.48081 4.45471 4.45472 8.48081 5.0606 13.2687C5.46841 16.4905 8.08685 19.1293 11.3043 19.5582C13.1957 19.8109 14.9711 19.339 16.3914 18.3819L20.5996 22.5901C21.1488 23.1392 22.0393 23.1392 22.5884 22.5901C23.1371 22.0402 23.1371 21.1472 22.5886 20.5988ZM7.78085 12.3125C7.78085 9.83116 9.79952 7.81249 12.2808 7.81249C14.7622 7.81249 16.7808 9.83116 16.7808 12.3125C16.7808 14.7938 14.7622 16.8125 12.2808 16.8125C9.79952 16.8125 7.78085 14.7945 7.78085 12.3125Z" fill="#9D4EDD"/>
</svg>
