<svg width="49" height="49" viewBox="0 0 49 49" fill="none" xmlns="http://www.w3.org/2000/svg">
<circle cx="24.5" cy="24.5" r="24.5" fill="#9D4EDD"/>
<path d="M21.1786 36.125C20.5766 36.125 20.0714 36.567 20.0714 37.0938V40H22.2857V37.0938C22.2857 36.567 21.7875 36.125 21.1786 36.125ZM27.8214 36.125C27.216 36.125 26.7143 36.564 26.7143 37.0938C26.7143 37.6235 27.216 38.0625 27.8214 38.0625C28.4269 38.0625 28.9286 37.6235 28.9286 37.0938C28.9286 36.564 28.4304 36.125 27.8214 36.125ZM20.3482 19.4141L20.916 20.9047C21 21.1254 21.3571 21.1254 21.4412 20.9047L22.0089 19.4141L23.7125 18.9174C23.9648 18.8436 23.9648 18.5314 23.7125 18.4576L22.0089 17.9609L21.4415 16.4715C21.3574 16.2506 21.0004 16.2506 20.9163 16.4715L20.3482 17.9609L18.646 18.4574C18.3937 18.5312 18.3937 18.8434 18.646 18.9172L20.3482 19.4141ZM32.2569 28.0965C30.0357 29.5012 27.344 30.3125 24.5 30.3125C21.656 30.3125 18.9622 29.4994 16.7431 28.0971C12.2211 29.598 9 33.4186 9 37.899C9 39.0615 10.0739 40 11.3983 40H17.8571V36.125C17.8571 35.0503 18.8432 34.1875 20.0714 34.1875H28.9286C30.1568 34.1875 31.1429 35.0503 31.1429 36.125V40H37.6017C38.9275 40 40 39.0615 40 37.899C40 33.4186 36.7824 29.598 32.2569 28.0965ZM13.4286 22.5625H14.3627C16.0788 25.9834 19.9607 28.375 24.5 28.375C29.0393 28.375 32.9281 25.9834 34.6373 22.5625H35.5714C36.1769 22.5625 36.6786 22.1235 36.6786 21.5938V15.7812C36.6786 15.2545 36.1804 14.8125 35.5714 14.8125H34.6373C32.9281 11.3916 29.0393 9 24.5 9C19.9607 9 16.0788 11.3916 14.3627 14.8125H13.4286C12.8231 14.8125 12.3214 15.2545 12.3214 15.7812V21.5938C12.3214 22.1266 12.8231 22.5625 13.4286 22.5625ZM16.1964 17.2344C16.1964 15.8963 17.6842 14.8125 19.5179 14.8125H29.4821C31.3158 14.8125 32.8036 15.8951 32.8036 17.2344V18.6875C32.8036 21.8965 29.8281 24.5 26.1607 24.5H22.8393C19.1719 24.5 16.1964 21.8965 16.1964 18.6875V17.2344Z" fill="#F1F1F1"/>
</svg>
